<svg id="레이어_1" data-name="레이어 1" xmlns="http://www.w3.org/2000/svg" viewBox="0 0 152.64 28.56"><defs><style>.cls-1{fill:#3181ea;}</style></defs><title>rogo_promote</title><path class="cls-1" d="M20.4,9.6a9.62,9.62,0,0,1-9.8,9.6H6.4V28H0V0H10.6A9.62,9.62,0,0,1,20.4,9.6ZM14,9.6A3.42,3.42,0,0,0,10.6,6H6.4v7.2h4.2A3.42,3.42,0,0,0,14,9.6Z"/><path class="cls-1" d="M35,7.6v6.8C32.52,14,29,15,29,19v9H23V8h6v3.56C29.8,8.88,32.48,7.6,35,7.6Z"/><path class="cls-1" d="M36.2,18A10.6,10.6,0,1,1,46.8,28.56,10.48,10.48,0,0,1,36.2,18Zm15.2,0a4.6,4.6,0,1,0-9.2,0,4.6,4.6,0,1,0,9.2,0Z"/><path class="cls-1" d="M90.79,15.72V28h-6V16.24c0-2-1-3.28-2.88-3.28s-3.12,1.4-3.12,3.76V28h-6V16.24c0-2-1-3.28-2.88-3.28s-3.12,1.4-3.12,3.76V28h-6V8h6V9.84c.92-1.36,2.68-2.4,5.36-2.4a6,6,0,0,1,5.24,2.64c1.12-1.6,3-2.64,5.8-2.64C87.8,7.44,90.79,10.72,90.79,15.72Z"/><path class="cls-1" d="M93.92,18a10.6,10.6,0,1,1,10.6,10.56A10.48,10.48,0,0,1,93.92,18Zm15.2,0a4.6,4.6,0,1,0-9.2,0,4.6,4.6,0,1,0,9.2,0Z"/><path class="cls-1" d="M125.72,13.76v7.08c0,1.72,1.48,1.88,4.12,1.72V28c-7.84.79-10.12-1.56-10.12-7.16V13.76h-3.2V8h3.2V4.2l6-1.8V8h4.12v5.76Z"/><path class="cls-1" d="M143,23.2a5.22,5.22,0,0,0,3.84-1.52l4.8,2.76a10.15,10.15,0,0,1-8.72,4.12c-6.84,0-11.08-4.6-11.08-10.56A10.25,10.25,0,0,1,142.48,7.44c5.84,0,10.16,4.52,10.16,10.56a11.63,11.63,0,0,1-.24,2.4H138.2C139,22.48,140.8,23.2,143,23.2Zm3.68-7.28a4.51,4.51,0,0,0-8.6,0Z"/></svg>